<?xml version="1.0" encoding="UTF-8"?>
<svg width="764px" height="202px" viewBox="0 0 764 202" version="1.1" xmlns="http://www.w3.org/2000/svg" xmlns:xlink="http://www.w3.org/1999/xlink">
    <title>palkon-final</title>
    <defs>
        <polygon id="path-1" points="0.06 0.292 763.812 0.292 763.812 202 0.06 202"></polygon>
    </defs>
    <g id="palkon-final" stroke="none" stroke-width="1" fill="none" fill-rule="evenodd">
        <g id="Group-4">
            <mask id="mask-2" fill="white">
                <use xlink:href="#path-1"></use>
            </mask>
            <g id="Clip-2"></g>
            <path d="M716.432,119.898 C691.271,92.964 687.215,45.181 519.247,0.292 C519.247,0.292 715.528,107.288 646.05,139.435 C576.569,171.587 566.369,152.976 642.601,202 C642.694,201.671 604.709,128.91 763.812,149.175 C763.812,149.175 723.143,127.084 716.432,119.898" id="Fill-1" fill="#26386E" mask="url(#mask-2)"></path>
            <path d="M11.065,65.96 C11.065,46.122 11.065,42.558 10.81,38.486 C10.555,34.162 9.537,32.127 5.34,31.237 C4.325,30.986 2.162,30.855 1.016,30.855 C0.506,30.855 0,30.604 0,30.094 C0,29.331 0.634,29.075 2.035,29.075 C7.757,29.075 15.388,29.457 16.406,29.457 C19.204,29.457 26.581,29.075 32.432,29.075 C48.33,29.075 54.051,34.418 56.086,36.325 C58.884,38.994 62.446,44.721 62.446,51.46 C62.446,69.521 49.218,81.728 31.159,81.728 C30.523,81.728 29.124,81.728 28.487,81.606 C27.853,81.606 27.089,81.347 27.089,80.714 C27.089,79.694 27.853,79.565 30.523,79.565 C42.861,79.565 52.527,70.54 52.527,58.836 C52.527,54.641 52.144,46.122 45.403,39.253 C38.664,32.385 30.904,32.889 27.98,32.889 C25.818,32.889 23.655,33.148 22.51,33.658 C21.747,33.908 21.492,34.8 21.492,36.071 L21.492,88.345 C21.492,100.551 21.492,110.602 22.127,115.946 C22.51,119.631 23.274,122.428 27.089,122.937 C28.869,123.195 31.667,123.447 32.812,123.447 C33.573,123.447 33.83,123.829 33.83,124.208 C33.83,124.848 33.192,125.229 31.794,125.229 C24.799,125.229 16.787,124.848 16.151,124.848 C15.771,124.848 7.757,125.229 3.942,125.229 C2.542,125.229 1.907,124.969 1.907,124.208 C1.907,123.829 2.162,123.447 2.924,123.447 C4.066,123.447 5.595,123.195 6.739,122.937 C9.283,122.428 9.919,119.631 10.429,115.946 C11.065,110.602 11.065,100.551 11.065,88.345 L11.065,65.96" id="Fill-3" fill="#26386E" mask="url(#mask-2)"></path>
        </g>
        <path d="M115.983,83.127 C116.619,83.127 116.619,82.748 116.492,82.238 L104.409,47.898 C103.774,45.992 103.138,45.992 102.502,47.898 L91.309,82.238 C91.056,82.877 91.309,83.127 91.692,83.127 L115.983,83.127 Z M102.757,32.257 C104.283,28.061 104.792,27.294 105.555,27.294 C106.317,27.294 106.827,27.931 108.352,31.875 C110.262,36.703 130.227,89.234 137.987,108.567 C142.565,119.884 146.254,121.922 148.925,122.685 C150.833,123.316 152.74,123.447 154.012,123.447 C154.775,123.447 155.284,123.576 155.284,124.208 C155.284,124.969 154.14,125.229 152.74,125.229 C150.833,125.229 141.546,125.229 132.769,124.969 C130.355,124.848 128.957,124.848 128.957,124.085 C128.957,123.576 129.337,123.316 129.848,123.195 C130.61,122.937 131.372,121.793 130.61,119.762 L118.782,88.472 C118.526,87.962 118.271,87.705 117.637,87.705 L90.292,87.705 C89.656,87.705 89.276,88.093 89.021,88.724 L81.388,111.24 C80.245,114.417 79.609,117.468 79.609,119.762 C79.609,122.303 82.28,123.447 84.442,123.447 L85.714,123.447 C86.604,123.447 86.986,123.698 86.986,124.208 C86.986,124.969 86.222,125.229 85.079,125.229 C82.025,125.229 76.556,124.848 75.157,124.848 C73.758,124.848 66.765,125.229 60.787,125.229 C59.13,125.229 58.369,124.969 58.369,124.208 C58.369,123.698 58.877,123.447 59.512,123.447 C60.404,123.447 62.185,123.316 63.202,123.195 C69.053,122.428 71.597,117.599 73.884,111.24 L102.757,32.257 L102.757,32.257 Z" id="Fill-5" fill="#26386E"></path>
        <path d="M186.688,88.596 C186.688,107.296 187.195,115.436 189.485,117.721 C191.521,119.762 194.828,120.651 204.748,120.651 C211.488,120.651 217.084,120.522 220.138,116.83 C221.791,114.795 223.062,111.62 223.444,109.201 C223.57,108.188 223.825,107.547 224.589,107.547 C225.225,107.547 225.352,108.057 225.352,109.457 C225.352,110.853 224.461,118.488 223.444,122.175 C222.554,125.097 222.172,125.607 215.431,125.607 C206.274,125.607 199.661,125.357 194.319,125.229 C188.978,124.969 185.034,124.848 181.347,124.848 C180.836,124.848 178.675,124.969 176.131,124.969 C173.587,125.097 170.789,125.229 168.882,125.229 C167.483,125.229 166.846,124.969 166.846,124.208 C166.846,123.829 167.102,123.447 167.866,123.447 C169.008,123.447 170.536,123.195 171.68,122.937 C174.223,122.428 174.859,119.631 175.369,115.946 C176.005,110.602 176.005,100.551 176.005,88.345 L176.005,65.96 C176.005,46.122 176.005,42.558 175.75,38.486 C175.496,34.162 174.478,32.127 170.281,31.237 C169.264,30.986 167.102,30.855 165.956,30.855 C165.448,30.855 164.939,30.604 164.939,30.094 C164.939,29.331 165.576,29.075 166.974,29.075 C172.699,29.075 180.709,29.457 181.347,29.457 C181.982,29.457 191.266,29.075 195.081,29.075 C196.48,29.075 197.118,29.331 197.118,30.094 C197.118,30.604 196.607,30.855 196.099,30.855 C195.208,30.855 193.428,30.986 191.902,31.237 C188.214,31.875 187.195,34.038 186.94,38.486 C186.688,42.558 186.688,46.122 186.688,65.96 L186.688,88.596" id="Fill-6" fill="#26386E"></path>
        <path d="M246.203,65.96 C246.203,46.122 246.203,42.558 245.948,38.486 C245.692,34.162 244.675,32.127 240.479,31.237 C239.461,30.986 237.299,30.855 236.153,30.855 C235.646,30.855 235.137,30.604 235.137,30.094 C235.137,29.331 235.773,29.075 237.171,29.075 C242.895,29.075 250.398,29.457 251.16,29.457 C252.308,29.457 259.684,29.075 263.499,29.075 C264.897,29.075 265.533,29.331 265.533,30.094 C265.533,30.604 265.025,30.855 264.516,30.855 C263.626,30.855 262.862,30.986 261.336,31.237 C257.901,31.875 256.884,34.038 256.631,38.486 C256.377,42.558 256.377,46.122 256.377,65.96 L256.377,73.587 L256.884,73.587 C259.047,71.173 282.068,47.773 286.646,42.812 C290.208,39.126 293.515,35.819 293.515,33.658 C293.515,32.127 292.878,31.365 291.86,30.986 C291.225,30.726 290.715,30.476 290.715,29.966 C290.715,29.331 291.353,29.075 292.243,29.075 C294.787,29.075 298.729,29.457 301.782,29.457 C302.417,29.457 310.81,29.075 313.991,29.075 C315.391,29.075 315.898,29.331 315.898,29.966 C315.898,30.604 315.643,30.855 314.628,30.855 C312.72,30.855 310.049,31.495 307.505,32.639 C302.29,34.93 299.492,38.104 293.77,43.572 C290.589,46.626 268.459,68.251 265.789,71.427 C269.096,75.119 326.397,134.557 331.61,139.393 C342.295,149.312 344.458,151.346 350.562,153.89 C353.868,155.29 357.557,155.544 358.448,155.544 C359.338,155.544 360.1,155.796 360.1,156.306 C360.1,156.944 359.465,157.325 357.302,157.325 L350.816,157.325 C347.255,157.325 344.84,157.325 342.042,157.069 C335.301,156.435 332.119,153.636 326.65,149.312 C320.927,144.608 263.117,83.387 257.013,75.878 L256.377,75.878 L256.377,88.345 C256.377,100.551 256.377,110.602 257.013,115.946 C257.394,119.631 258.157,122.428 261.97,122.937 C263.754,123.195 265.789,123.447 266.934,123.447 C267.696,123.447 267.951,123.829 267.951,124.208 C267.951,124.848 267.313,125.229 265.916,125.229 C259.684,125.229 252.308,124.848 251.289,124.848 C250.272,124.848 242.895,125.229 239.08,125.229 C237.681,125.229 237.044,124.969 237.044,124.208 C237.044,123.829 237.299,123.447 238.063,123.447 C239.207,123.447 240.733,123.195 241.878,122.937 C244.42,122.428 245.058,119.631 245.566,115.946 C246.203,110.602 246.203,100.551 246.203,88.345 L246.203,65.96" id="Fill-7" fill="#26386E"></path>
        <path d="M372.869,122.175 C384.315,122.175 407.971,115.56 407.971,78.551 C407.971,48.026 389.403,31.618 369.308,31.618 C348.068,31.618 332.168,45.613 332.168,73.465 C332.168,103.102 349.975,122.175 372.869,122.175 Z M370.197,27.294 C398.813,27.294 420.179,45.353 420.179,74.989 C420.179,103.48 400.087,127.011 369.434,127.011 C334.586,127.011 320.087,99.92 320.087,77.022 C320.087,56.418 335.096,27.294 370.197,27.294 L370.197,27.294 Z" id="Fill-8" fill="#26386E"></path>
        <path d="M445.479,107.929 C445.731,118.36 447.003,121.666 450.437,122.685 C452.855,123.316 455.654,123.447 456.798,123.447 C457.434,123.447 457.813,123.698 457.813,124.208 C457.813,124.969 457.05,125.229 455.527,125.229 C448.276,125.229 443.188,124.848 442.044,124.848 C440.899,124.848 435.557,125.229 429.835,125.229 C428.563,125.229 427.8,125.097 427.8,124.208 C427.8,123.698 428.182,123.447 428.816,123.447 C429.835,123.447 432.123,123.316 434.03,122.685 C437.211,121.793 437.847,118.102 437.847,106.535 L437.975,33.658 C437.975,28.692 438.354,27.294 439.372,27.294 C440.391,27.294 442.553,30.094 443.824,31.365 C445.731,33.528 464.683,54.002 484.269,74.989 C496.861,88.472 510.723,103.983 514.794,108.188 L513.396,43.572 C513.268,35.31 512.375,32.507 508.434,31.495 C506.145,30.986 503.22,30.855 502.203,30.855 C501.311,30.855 501.185,30.476 501.185,29.966 C501.185,29.202 502.203,29.075 503.729,29.075 C509.453,29.075 515.557,29.457 516.956,29.457 C518.354,29.457 522.551,29.075 527.765,29.075 C529.164,29.075 530.056,29.202 530.056,29.966 C530.056,30.476 529.547,30.855 528.656,30.855 C528.021,30.855 527.128,30.855 525.603,31.237 C521.407,32.127 520.897,34.93 520.897,42.558 L520.645,117.089 C520.645,125.479 520.388,126.12 519.498,126.12 C518.481,126.12 516.956,124.719 510.215,117.978 C508.813,116.708 490.498,98.006 477.021,83.509 C462.268,67.613 447.895,51.59 443.824,47.006 L445.479,107.929" id="Fill-9" fill="#26386E"></path>
        <path d="M3.827,190.023 C1.002,187.489 0.303,184.167 0.303,181.401 C0.303,179.449 0.973,176.041 3.565,173.448 C5.313,171.701 7.964,170.332 12.45,170.332 C13.615,170.332 15.246,170.418 16.673,170.681 C17.78,170.885 18.712,171.06 19.645,171.118 C19.965,171.147 20.023,171.263 20.023,171.438 C20.023,171.671 19.936,172.021 19.877,173.07 C19.819,174.031 19.819,175.633 19.79,176.07 C19.761,176.506 19.703,176.681 19.528,176.681 C19.324,176.681 19.295,176.478 19.295,176.07 C19.295,174.934 18.829,173.74 18.071,173.099 C17.052,172.225 14.809,171.438 12.246,171.438 C8.372,171.438 6.565,172.575 5.546,173.565 C3.419,175.604 2.924,178.196 2.924,181.167 C2.924,186.731 7.207,191.829 13.44,191.829 C15.625,191.829 17.343,191.567 18.508,190.373 C19.12,189.731 19.499,188.45 19.586,187.925 C19.645,187.605 19.703,187.489 19.877,187.489 C20.023,187.489 20.081,187.692 20.081,187.925 C20.081,188.129 19.732,190.664 19.44,191.654 C19.266,192.208 19.208,192.265 18.683,192.499 C17.518,192.964 15.304,193.168 13.44,193.168 C9.071,193.168 6.128,192.09 3.827,190.023" id="Fill-10" fill="#26386E"></path>
        <path d="M43.034,183.119 C43.18,183.119 43.18,183.032 43.15,182.916 L40.383,175.05 C40.238,174.614 40.092,174.614 39.946,175.05 L37.383,182.916 C37.325,183.061 37.383,183.119 37.47,183.119 L43.034,183.119 Z M40.004,171.467 C40.354,170.506 40.471,170.332 40.646,170.332 C40.82,170.332 40.936,170.477 41.286,171.38 C41.723,172.487 46.296,184.517 48.073,188.945 C49.122,191.538 49.967,192.003 50.579,192.178 C51.015,192.324 51.452,192.353 51.744,192.353 C51.918,192.353 52.035,192.382 52.035,192.528 C52.035,192.703 51.772,192.76 51.452,192.76 C51.015,192.76 48.889,192.76 46.879,192.703 C46.326,192.673 46.005,192.673 46.005,192.499 C46.005,192.382 46.092,192.324 46.209,192.294 C46.384,192.237 46.559,191.974 46.384,191.508 L43.675,184.342 C43.617,184.226 43.558,184.167 43.413,184.167 L37.15,184.167 C37.004,184.167 36.917,184.255 36.858,184.401 L35.111,189.556 C34.849,190.285 34.703,190.984 34.703,191.508 C34.703,192.09 35.315,192.353 35.81,192.353 L36.101,192.353 C36.305,192.353 36.393,192.412 36.393,192.528 C36.393,192.703 36.218,192.76 35.956,192.76 C35.256,192.76 34.004,192.673 33.684,192.673 C33.363,192.673 31.761,192.76 30.392,192.76 C30.013,192.76 29.838,192.703 29.838,192.528 C29.838,192.412 29.955,192.353 30.101,192.353 C30.305,192.353 30.712,192.324 30.945,192.294 C32.285,192.12 32.868,191.013 33.392,189.556 L40.004,171.467 L40.004,171.467 Z" id="Fill-11" fill="#26386E"></path>
        <path d="M64.939,179.187 C64.939,174.642 64.939,173.827 64.88,172.895 C64.822,171.905 64.589,171.438 63.627,171.234 C63.395,171.176 62.899,171.147 62.637,171.147 C62.521,171.147 62.404,171.088 62.404,170.972 C62.404,170.797 62.55,170.739 62.87,170.739 C64.181,170.739 65.929,170.827 66.162,170.827 C66.803,170.827 68.492,170.739 69.832,170.739 C73.473,170.739 74.784,171.962 75.25,172.4 C75.891,173.011 76.706,174.322 76.706,175.866 C76.706,180.002 73.677,182.798 69.541,182.798 C69.395,182.798 69.075,182.798 68.929,182.769 C68.783,182.769 68.608,182.711 68.608,182.566 C68.608,182.333 68.783,182.303 69.395,182.303 C72.221,182.303 74.435,180.235 74.435,177.555 C74.435,176.594 74.347,174.642 72.803,173.07 C71.259,171.497 69.482,171.613 68.812,171.613 C68.317,171.613 67.822,171.671 67.56,171.788 C67.385,171.846 67.327,172.05 67.327,172.341 L67.327,184.313 C67.327,187.11 67.327,189.411 67.473,190.634 C67.56,191.479 67.735,192.12 68.608,192.237 C69.017,192.294 69.657,192.353 69.919,192.353 C70.094,192.353 70.152,192.44 70.152,192.528 C70.152,192.673 70.007,192.76 69.686,192.76 C68.085,192.76 66.249,192.673 66.104,192.673 C66.016,192.673 64.181,192.76 63.307,192.76 C62.987,192.76 62.841,192.703 62.841,192.528 C62.841,192.44 62.899,192.353 63.074,192.353 C63.336,192.353 63.686,192.294 63.948,192.237 C64.531,192.12 64.676,191.479 64.793,190.634 C64.939,189.411 64.939,187.11 64.939,184.313 L64.939,179.187" id="Fill-12" fill="#26386E"></path>
        <path d="M94.387,184.313 C94.387,187.11 94.387,189.411 94.533,190.634 C94.62,191.479 94.795,192.12 95.669,192.237 C96.077,192.294 96.717,192.353 96.98,192.353 C97.154,192.353 97.213,192.44 97.213,192.528 C97.213,192.673 97.067,192.76 96.747,192.76 C95.145,192.76 93.31,192.673 93.164,192.673 C93.018,192.673 91.183,192.76 90.309,192.76 C89.989,192.76 89.843,192.703 89.843,192.528 C89.843,192.44 89.901,192.353 90.076,192.353 C90.338,192.353 90.688,192.294 90.95,192.237 C91.533,192.12 91.678,191.479 91.795,190.634 C91.94,189.411 91.94,187.11 91.94,184.313 L91.94,179.187 C91.94,174.642 91.94,173.827 91.882,172.895 C91.824,171.905 91.533,171.409 90.892,171.263 C90.571,171.176 90.192,171.147 89.989,171.147 C89.872,171.147 89.756,171.088 89.756,170.972 C89.756,170.797 89.901,170.739 90.222,170.739 C91.183,170.739 93.018,170.827 93.164,170.827 C93.31,170.827 95.145,170.739 96.019,170.739 C96.339,170.739 96.484,170.797 96.484,170.972 C96.484,171.088 96.368,171.147 96.251,171.147 C96.047,171.147 95.873,171.176 95.523,171.234 C94.737,171.38 94.504,171.875 94.445,172.895 C94.387,173.827 94.387,174.642 94.387,179.187 L94.387,184.313" id="Fill-13" fill="#26386E"></path>
        <path d="M119.7,184.313 C119.7,187.11 119.7,189.411 119.845,190.634 C119.933,191.479 120.107,192.12 120.981,192.237 C121.389,192.294 122.03,192.353 122.292,192.353 C122.467,192.353 122.525,192.44 122.525,192.528 C122.525,192.673 122.379,192.76 122.059,192.76 C120.457,192.76 118.622,192.673 118.476,192.673 C118.331,192.673 116.495,192.76 115.622,192.76 C115.301,192.76 115.155,192.703 115.155,192.528 C115.155,192.44 115.214,192.353 115.388,192.353 C115.65,192.353 116,192.294 116.262,192.237 C116.845,192.12 116.991,191.479 117.107,190.634 C117.252,189.411 117.252,187.11 117.252,184.313 L117.252,171.992 L112.941,172.05 C111.136,172.08 110.437,172.283 109.97,172.982 C109.65,173.477 109.563,173.681 109.475,173.885 C109.388,174.118 109.3,174.176 109.184,174.176 C109.097,174.176 109.038,174.089 109.038,173.915 C109.038,173.623 109.621,171.118 109.679,170.885 C109.737,170.71 109.854,170.332 109.97,170.332 C110.174,170.332 110.466,170.623 111.252,170.681 C112.097,170.768 113.204,170.827 113.553,170.827 L124.477,170.827 C125.409,170.827 126.079,170.768 126.545,170.681 C126.982,170.623 127.244,170.536 127.36,170.536 C127.506,170.536 127.506,170.71 127.506,170.885 C127.506,171.758 127.419,173.769 127.419,174.089 C127.419,174.351 127.332,174.467 127.215,174.467 C127.069,174.467 127.011,174.38 126.982,173.972 L126.953,173.652 C126.865,172.778 126.166,172.108 123.37,172.05 L119.7,171.992 L119.7,184.313" id="Fill-14" fill="#26386E"></path>
        <path d="M148.275,183.119 C148.42,183.119 148.42,183.032 148.391,182.916 L145.624,175.05 C145.479,174.614 145.333,174.614 145.187,175.05 L142.624,182.916 C142.565,183.061 142.624,183.119 142.711,183.119 L148.275,183.119 Z M145.245,171.467 C145.595,170.506 145.711,170.332 145.886,170.332 C146.061,170.332 146.177,170.477 146.527,171.38 C146.964,172.487 151.537,184.517 153.314,188.945 C154.363,191.538 155.208,192.003 155.819,192.178 C156.256,192.324 156.693,192.353 156.984,192.353 C157.159,192.353 157.275,192.382 157.275,192.528 C157.275,192.703 157.013,192.76 156.693,192.76 C156.256,192.76 154.129,192.76 152.12,192.703 C151.566,192.673 151.246,192.673 151.246,192.499 C151.246,192.382 151.333,192.324 151.45,192.294 C151.625,192.237 151.799,191.974 151.625,191.508 L148.916,184.342 C148.857,184.226 148.799,184.167 148.653,184.167 L142.391,184.167 C142.245,184.167 142.158,184.255 142.099,184.401 L140.352,189.556 C140.089,190.285 139.944,190.984 139.944,191.508 C139.944,192.09 140.556,192.353 141.051,192.353 L141.342,192.353 C141.546,192.353 141.633,192.412 141.633,192.528 C141.633,192.703 141.458,192.76 141.196,192.76 C140.497,192.76 139.245,192.673 138.924,192.673 C138.604,192.673 137.002,192.76 135.633,192.76 C135.254,192.76 135.079,192.703 135.079,192.528 C135.079,192.412 135.196,192.353 135.341,192.353 C135.545,192.353 135.953,192.324 136.186,192.294 C137.526,192.12 138.109,191.013 138.633,189.556 L145.245,171.467 L145.245,171.467 Z" id="Fill-15" fill="#26386E"></path>
        <path d="M172.626,184.372 C172.626,188.654 172.743,190.518 173.267,191.042 C173.733,191.508 174.49,191.712 176.762,191.712 C178.306,191.712 179.588,191.683 180.287,190.838 C180.666,190.373 180.957,189.644 181.044,189.09 C181.073,188.858 181.132,188.711 181.307,188.711 C181.452,188.711 181.481,188.829 181.481,189.149 C181.481,189.469 181.277,191.217 181.044,192.062 C180.84,192.732 180.753,192.848 179.209,192.848 C177.112,192.848 175.597,192.79 174.374,192.76 C173.15,192.703 172.247,192.673 171.402,192.673 C171.286,192.673 170.791,192.703 170.208,192.703 C169.625,192.732 168.985,192.76 168.548,192.76 C168.228,192.76 168.082,192.703 168.082,192.528 C168.082,192.44 168.14,192.353 168.315,192.353 C168.577,192.353 168.927,192.294 169.188,192.237 C169.771,192.12 169.917,191.479 170.034,190.634 C170.179,189.411 170.179,187.11 170.179,184.313 L170.179,179.187 C170.179,174.642 170.179,173.827 170.121,172.895 C170.063,171.905 169.83,171.438 168.868,171.234 C168.635,171.176 168.14,171.147 167.878,171.147 C167.761,171.147 167.645,171.088 167.645,170.972 C167.645,170.797 167.791,170.739 168.111,170.739 C169.422,170.739 171.257,170.827 171.402,170.827 C171.548,170.827 173.675,170.739 174.548,170.739 C174.869,170.739 175.015,170.797 175.015,170.972 C175.015,171.088 174.898,171.147 174.781,171.147 C174.578,171.147 174.17,171.176 173.82,171.234 C172.976,171.38 172.743,171.875 172.684,172.895 C172.626,173.827 172.626,174.642 172.626,179.187 L172.626,184.372" id="Fill-16" fill="#26386E"></path>
        <path d="M236.039,189.003 C236.155,190.051 236.359,191.683 237.611,192.09 C238.457,192.353 239.214,192.353 239.505,192.353 C239.65,192.353 239.738,192.382 239.738,192.499 C239.738,192.673 239.476,192.76 239.126,192.76 C238.485,192.76 235.339,192.673 234.262,192.586 C233.592,192.528 233.446,192.44 233.446,192.294 C233.446,192.178 233.504,192.12 233.65,192.09 C233.796,192.062 233.825,191.567 233.767,191.042 L232.368,176.011 L232.281,176.011 L225.145,191.159 C224.533,192.44 224.445,192.703 224.183,192.703 C223.979,192.703 223.833,192.412 223.28,191.363 C222.523,189.935 220.018,184.896 219.872,184.605 C219.61,184.081 216.347,177.089 216.027,176.303 L215.911,176.303 L214.745,189.819 C214.716,190.285 214.716,190.809 214.716,191.304 C214.716,191.742 215.037,192.12 215.474,192.208 C215.969,192.324 216.406,192.353 216.581,192.353 C216.697,192.353 216.813,192.412 216.813,192.499 C216.813,192.703 216.639,192.76 216.289,192.76 C215.211,192.76 213.813,192.673 213.58,192.673 C213.318,192.673 211.92,192.76 211.133,192.76 C210.842,192.76 210.638,192.703 210.638,192.499 C210.638,192.412 210.784,192.353 210.929,192.353 C211.163,192.353 211.366,192.353 211.803,192.265 C212.765,192.09 212.852,190.955 212.968,189.848 L215.066,170.856 C215.095,170.536 215.211,170.332 215.386,170.332 C215.561,170.332 215.677,170.448 215.823,170.768 L224.736,189.09 L233.3,170.797 C233.417,170.536 233.534,170.332 233.737,170.332 C233.941,170.332 234.029,170.564 234.087,171.118 L236.039,189.003" id="Fill-17" fill="#26386E"></path>
        <path d="M261.496,183.119 C261.642,183.119 261.642,183.032 261.612,182.916 L258.845,175.05 C258.7,174.614 258.554,174.614 258.408,175.05 L255.845,182.916 C255.787,183.061 255.845,183.119 255.932,183.119 L261.496,183.119 Z M258.466,171.467 C258.816,170.506 258.933,170.332 259.107,170.332 C259.282,170.332 259.398,170.477 259.748,171.38 C260.185,172.487 264.758,184.517 266.535,188.945 C267.584,191.538 268.429,192.003 269.041,192.178 C269.477,192.324 269.914,192.353 270.206,192.353 C270.38,192.353 270.497,192.382 270.497,192.528 C270.497,192.703 270.234,192.76 269.914,192.76 C269.477,192.76 267.351,192.76 265.341,192.703 C264.788,192.673 264.467,192.673 264.467,192.499 C264.467,192.382 264.554,192.324 264.671,192.294 C264.846,192.237 265.021,191.974 264.846,191.508 L262.137,184.342 C262.079,184.226 262.02,184.167 261.875,184.167 L255.612,184.167 C255.466,184.167 255.379,184.255 255.32,184.401 L253.573,189.556 C253.311,190.285 253.165,190.984 253.165,191.508 C253.165,192.09 253.777,192.353 254.272,192.353 L254.563,192.353 C254.767,192.353 254.854,192.412 254.854,192.528 C254.854,192.703 254.68,192.76 254.417,192.76 C253.718,192.76 252.466,192.673 252.146,192.673 C251.825,192.673 250.223,192.76 248.854,192.76 C248.475,192.76 248.3,192.703 248.3,192.528 C248.3,192.412 248.417,192.353 248.563,192.353 C248.767,192.353 249.174,192.324 249.407,192.294 C250.747,192.12 251.33,191.013 251.854,189.556 L258.466,171.467 L258.466,171.467 Z" id="Fill-18" fill="#26386E"></path>
        <path d="M284.187,188.799 C284.245,191.188 284.536,191.945 285.323,192.178 C285.876,192.324 286.517,192.353 286.779,192.353 C286.925,192.353 287.012,192.412 287.012,192.528 C287.012,192.703 286.837,192.76 286.488,192.76 C284.828,192.76 283.663,192.673 283.4,192.673 C283.138,192.673 281.915,192.76 280.604,192.76 C280.313,192.76 280.138,192.732 280.138,192.528 C280.138,192.412 280.225,192.353 280.371,192.353 C280.604,192.353 281.128,192.324 281.565,192.178 C282.293,191.974 282.439,191.129 282.439,188.479 L282.468,171.788 C282.468,170.652 282.556,170.332 282.789,170.332 C283.021,170.332 283.517,170.972 283.808,171.263 C284.245,171.758 288.585,176.449 293.071,181.254 C295.955,184.342 299.13,187.896 300.062,188.858 L299.742,174.06 C299.712,172.167 299.509,171.526 298.605,171.292 C298.082,171.176 297.411,171.147 297.178,171.147 C296.975,171.147 296.945,171.06 296.945,170.943 C296.945,170.768 297.178,170.739 297.528,170.739 C298.839,170.739 300.237,170.827 300.557,170.827 C300.878,170.827 301.839,170.739 303.033,170.739 C303.354,170.739 303.558,170.768 303.558,170.943 C303.558,171.06 303.441,171.147 303.237,171.147 C303.091,171.147 302.888,171.147 302.538,171.234 C301.577,171.438 301.46,172.08 301.46,173.827 L301.402,190.896 C301.402,192.819 301.344,192.964 301.14,192.964 C300.907,192.964 300.557,192.644 299.014,191.1 C298.693,190.809 294.499,186.527 291.411,183.207 C288.032,179.565 284.74,175.895 283.808,174.846 L284.187,188.799" id="Fill-19" fill="#26386E"></path>
        <path d="M326.947,183.119 C327.093,183.119 327.093,183.032 327.063,182.916 L324.296,175.05 C324.151,174.614 324.005,174.614 323.859,175.05 L321.296,182.916 C321.238,183.061 321.296,183.119 321.383,183.119 L326.947,183.119 Z M323.917,171.467 C324.267,170.506 324.384,170.332 324.559,170.332 C324.733,170.332 324.85,170.477 325.199,171.38 C325.636,172.487 330.209,184.517 331.986,188.945 C333.035,191.538 333.88,192.003 334.492,192.178 C334.928,192.324 335.365,192.353 335.657,192.353 C335.832,192.353 335.948,192.382 335.948,192.528 C335.948,192.703 335.686,192.76 335.365,192.76 C334.928,192.76 332.802,192.76 330.792,192.703 C330.239,192.673 329.918,192.673 329.918,192.499 C329.918,192.382 330.005,192.324 330.122,192.294 C330.297,192.237 330.472,191.974 330.297,191.508 L327.588,184.342 C327.53,184.226 327.471,184.167 327.326,184.167 L321.063,184.167 C320.917,184.167 320.83,184.255 320.771,184.401 L319.024,189.556 C318.762,190.285 318.616,190.984 318.616,191.508 C318.616,192.09 319.228,192.353 319.723,192.353 L320.014,192.353 C320.218,192.353 320.306,192.412 320.306,192.528 C320.306,192.703 320.131,192.76 319.869,192.76 C319.169,192.76 317.917,192.673 317.597,192.673 C317.276,192.673 315.674,192.76 314.305,192.76 C313.926,192.76 313.751,192.703 313.751,192.528 C313.751,192.412 313.868,192.353 314.014,192.353 C314.218,192.353 314.625,192.324 314.858,192.294 C316.198,192.12 316.781,191.013 317.305,189.556 L323.917,171.467 L323.917,171.467 Z" id="Fill-20" fill="#26386E"></path>
        <path d="M362.688,185.333 C362.688,182.973 362.542,182.653 361.377,182.333 C361.144,182.274 360.649,182.246 360.387,182.246 C360.27,182.246 360.153,182.187 360.153,182.071 C360.153,181.896 360.299,181.837 360.62,181.837 C361.93,181.837 363.766,181.924 363.911,181.924 C364.057,181.924 365.892,181.837 366.766,181.837 C367.086,181.837 367.232,181.896 367.232,182.071 C367.232,182.187 367.115,182.246 366.999,182.246 C366.795,182.246 366.62,182.274 366.271,182.333 C365.484,182.478 365.251,182.973 365.193,183.993 C365.135,184.925 365.135,185.799 365.135,187.022 L365.135,190.285 C365.135,191.595 365.105,191.654 364.756,191.858 C362.892,192.848 360.27,193.168 358.581,193.168 C356.367,193.168 352.23,192.877 348.997,190.051 C347.22,188.508 345.531,185.391 345.531,181.75 C345.531,177.089 347.803,173.797 350.396,172.167 C353.017,170.536 355.901,170.332 358.144,170.332 C359.979,170.332 362.047,170.71 362.601,170.827 C363.212,170.972 364.231,171.088 364.96,171.118 C365.251,171.147 365.31,171.263 365.31,171.38 C365.31,171.788 365.105,172.603 365.105,175.516 C365.105,175.982 365.047,176.128 364.843,176.128 C364.698,176.128 364.668,175.954 364.64,175.691 C364.61,175.284 364.465,174.467 364.028,173.769 C363.299,172.662 360.94,171.409 357.183,171.409 C355.347,171.409 353.163,171.584 350.949,173.332 C349.259,174.671 348.065,177.323 348.065,180.73 C348.065,184.837 350.133,187.809 351.153,188.799 C353.454,191.042 356.104,191.916 358.785,191.916 C359.833,191.916 361.348,191.742 362.105,191.304 C362.484,191.1 362.688,190.78 362.688,190.285 L362.688,185.333" id="Fill-21" fill="#26386E"></path>
        <path d="M382.698,179.187 C382.698,174.642 382.698,173.827 382.641,172.895 C382.582,171.905 382.349,171.438 381.388,171.234 C381.155,171.176 380.659,171.147 380.397,171.147 C380.281,171.147 380.164,171.088 380.164,170.972 C380.164,170.797 380.311,170.739 380.631,170.739 C381.301,170.739 382.087,170.739 382.728,170.768 L383.922,170.827 C384.126,170.827 389.923,170.827 390.593,170.797 C391.146,170.768 391.612,170.71 391.845,170.652 C391.991,170.623 392.107,170.506 392.253,170.506 C392.341,170.506 392.369,170.623 392.369,170.768 C392.369,170.972 392.224,171.322 392.137,172.137 C392.107,172.428 392.049,173.71 391.991,174.06 C391.962,174.206 391.903,174.38 391.787,174.38 C391.612,174.38 391.554,174.235 391.554,174.001 C391.554,173.797 391.524,173.302 391.379,172.953 C391.175,172.487 390.884,172.137 389.311,171.962 C388.815,171.905 385.641,171.875 385.32,171.875 C385.204,171.875 385.146,171.962 385.146,172.167 L385.146,180.207 C385.146,180.41 385.175,180.498 385.32,180.498 C385.699,180.498 389.282,180.498 389.952,180.439 C390.65,180.381 391.059,180.323 391.321,180.032 C391.524,179.798 391.642,179.653 391.758,179.653 C391.845,179.653 391.903,179.71 391.903,179.885 C391.903,180.06 391.758,180.556 391.67,181.517 C391.612,182.099 391.554,183.177 391.554,183.381 C391.554,183.614 391.554,183.935 391.35,183.935 C391.204,183.935 391.146,183.818 391.146,183.672 C391.146,183.381 391.146,183.09 391.029,182.711 C390.913,182.303 390.65,181.808 389.515,181.692 C388.729,181.604 385.845,181.546 385.35,181.546 C385.204,181.546 385.146,181.633 385.146,181.75 L385.146,184.313 C385.146,185.303 385.116,188.683 385.146,189.294 C385.232,191.304 385.67,191.683 388.524,191.683 C389.282,191.683 390.563,191.683 391.321,191.363 C392.078,191.042 392.428,190.459 392.632,189.265 C392.689,188.945 392.748,188.829 392.894,188.829 C393.068,188.829 393.068,189.061 393.068,189.265 C393.068,189.499 392.836,191.479 392.689,192.09 C392.486,192.848 392.253,192.848 391.117,192.848 C388.933,192.848 387.33,192.79 386.194,192.76 C385.058,192.703 384.359,192.673 383.922,192.673 C383.864,192.673 383.368,192.673 382.757,192.703 C382.174,192.703 381.504,192.76 381.067,192.76 C380.747,192.76 380.602,192.703 380.602,192.528 C380.602,192.44 380.659,192.353 380.834,192.353 C381.097,192.353 381.446,192.294 381.708,192.237 C382.291,192.12 382.437,191.479 382.553,190.634 C382.698,189.411 382.698,187.11 382.698,184.313 L382.698,179.187" id="Fill-22" fill="#26386E"></path>
        <path d="M430.878,189.003 C430.994,190.051 431.198,191.683 432.45,192.09 C433.295,192.353 434.053,192.353 434.344,192.353 C434.489,192.353 434.577,192.382 434.577,192.499 C434.577,192.673 434.314,192.76 433.965,192.76 C433.324,192.76 430.179,192.673 429.101,192.586 C428.431,192.528 428.285,192.44 428.285,192.294 C428.285,192.178 428.343,192.12 428.489,192.09 C428.635,192.062 428.664,191.567 428.605,191.042 L427.207,176.011 L427.12,176.011 L419.983,191.159 C419.371,192.44 419.284,192.703 419.021,192.703 C418.818,192.703 418.673,192.412 418.119,191.363 C417.361,189.935 414.856,184.896 414.711,184.605 C414.448,184.081 411.187,177.089 410.866,176.303 L410.749,176.303 L409.584,189.819 C409.555,190.285 409.555,190.809 409.555,191.304 C409.555,191.742 409.875,192.12 410.313,192.208 C410.808,192.324 411.244,192.353 411.419,192.353 C411.536,192.353 411.652,192.412 411.652,192.499 C411.652,192.703 411.478,192.76 411.128,192.76 C410.05,192.76 408.652,192.673 408.419,192.673 C408.157,192.673 406.759,192.76 405.972,192.76 C405.681,192.76 405.477,192.703 405.477,192.499 C405.477,192.412 405.623,192.353 405.769,192.353 C406.001,192.353 406.205,192.353 406.643,192.265 C407.604,192.09 407.69,190.955 407.808,189.848 L409.904,170.856 C409.934,170.536 410.05,170.332 410.225,170.332 C410.399,170.332 410.517,170.448 410.662,170.768 L419.575,189.09 L428.14,170.797 C428.256,170.536 428.372,170.332 428.576,170.332 C428.78,170.332 428.867,170.564 428.926,171.118 L430.878,189.003" id="Fill-23" fill="#26386E"></path>
        <path d="M448.527,179.187 C448.527,174.642 448.527,173.827 448.47,172.895 C448.411,171.905 448.178,171.438 447.217,171.234 C446.984,171.176 446.488,171.147 446.227,171.147 C446.11,171.147 445.993,171.088 445.993,170.972 C445.993,170.797 446.139,170.739 446.46,170.739 C447.13,170.739 447.916,170.739 448.557,170.768 L449.751,170.827 C449.955,170.827 455.752,170.827 456.422,170.797 C456.976,170.768 457.441,170.71 457.674,170.652 C457.82,170.623 457.937,170.506 458.082,170.506 C458.17,170.506 458.198,170.623 458.198,170.768 C458.198,170.972 458.053,171.322 457.966,172.137 C457.937,172.428 457.878,173.71 457.82,174.06 C457.791,174.206 457.732,174.38 457.616,174.38 C457.441,174.38 457.383,174.235 457.383,174.001 C457.383,173.797 457.354,173.302 457.208,172.953 C457.004,172.487 456.713,172.137 455.14,171.962 C454.645,171.905 451.47,171.875 451.149,171.875 C451.033,171.875 450.975,171.962 450.975,172.167 L450.975,180.207 C450.975,180.41 451.004,180.498 451.149,180.498 C451.528,180.498 455.111,180.498 455.781,180.439 C456.479,180.381 456.888,180.323 457.15,180.032 C457.354,179.798 457.471,179.653 457.587,179.653 C457.674,179.653 457.732,179.71 457.732,179.885 C457.732,180.06 457.587,180.556 457.499,181.517 C457.441,182.099 457.383,183.177 457.383,183.381 C457.383,183.614 457.383,183.935 457.179,183.935 C457.033,183.935 456.976,183.818 456.976,183.672 C456.976,183.381 456.976,183.09 456.858,182.711 C456.742,182.303 456.479,181.808 455.344,181.692 C454.558,181.604 451.674,181.546 451.179,181.546 C451.033,181.546 450.975,181.633 450.975,181.75 L450.975,184.313 C450.975,185.303 450.945,188.683 450.975,189.294 C451.062,191.304 451.499,191.683 454.354,191.683 C455.111,191.683 456.393,191.683 457.15,191.363 C457.907,191.042 458.257,190.459 458.461,189.265 C458.519,188.945 458.577,188.829 458.723,188.829 C458.897,188.829 458.897,189.061 458.897,189.265 C458.897,189.499 458.665,191.479 458.519,192.09 C458.315,192.848 458.082,192.848 456.946,192.848 C454.762,192.848 453.159,192.79 452.023,192.76 C450.887,192.703 450.188,192.673 449.751,192.673 C449.693,192.673 449.197,192.673 448.586,192.703 C448.004,192.703 447.333,192.76 446.896,192.76 C446.576,192.76 446.431,192.703 446.431,192.528 C446.431,192.44 446.488,192.353 446.663,192.353 C446.926,192.353 447.275,192.294 447.537,192.237 C448.12,192.12 448.266,191.479 448.382,190.634 C448.527,189.411 448.527,187.11 448.527,184.313 L448.527,179.187" id="Fill-24" fill="#26386E"></path>
        <path d="M475.821,188.799 C475.879,191.188 476.171,191.945 476.957,192.178 C477.511,192.324 478.151,192.353 478.413,192.353 C478.56,192.353 478.646,192.412 478.646,192.528 C478.646,192.703 478.472,192.76 478.122,192.76 C476.462,192.76 475.297,192.673 475.034,192.673 C474.772,192.673 473.549,192.76 472.238,192.76 C471.947,192.76 471.772,192.732 471.772,192.528 C471.772,192.412 471.859,192.353 472.005,192.353 C472.238,192.353 472.763,192.324 473.199,192.178 C473.928,191.974 474.073,191.129 474.073,188.479 L474.103,171.788 C474.103,170.652 474.189,170.332 474.423,170.332 C474.656,170.332 475.151,170.972 475.442,171.263 C475.879,171.758 480.22,176.449 484.705,181.254 C487.589,184.342 490.765,187.896 491.696,188.858 L491.376,174.06 C491.347,172.167 491.143,171.526 490.24,171.292 C489.716,171.176 489.046,171.147 488.813,171.147 C488.608,171.147 488.579,171.06 488.579,170.943 C488.579,170.768 488.813,170.739 489.162,170.739 C490.473,170.739 491.871,170.827 492.191,170.827 C492.512,170.827 493.474,170.739 494.668,170.739 C494.988,170.739 495.191,170.768 495.191,170.943 C495.191,171.06 495.075,171.147 494.871,171.147 C494.726,171.147 494.521,171.147 494.172,171.234 C493.211,171.438 493.095,172.08 493.095,173.827 L493.036,190.896 C493.036,192.819 492.979,192.964 492.774,192.964 C492.541,192.964 492.191,192.644 490.647,191.1 C490.327,190.809 486.133,186.527 483.045,183.207 C479.666,179.565 476.375,175.895 475.442,174.846 L475.821,188.799" id="Fill-25" fill="#26386E"></path>
        <path d="M517.563,184.313 C517.563,187.11 517.563,189.411 517.708,190.634 C517.795,191.479 517.97,192.12 518.844,192.237 C519.252,192.294 519.893,192.353 520.154,192.353 C520.329,192.353 520.388,192.44 520.388,192.528 C520.388,192.673 520.242,192.76 519.922,192.76 C518.319,192.76 516.484,192.673 516.339,192.673 C516.193,192.673 514.358,192.76 513.484,192.76 C513.164,192.76 513.019,192.703 513.019,192.528 C513.019,192.44 513.076,192.353 513.251,192.353 C513.514,192.353 513.863,192.294 514.125,192.237 C514.708,192.12 514.854,191.479 514.97,190.634 C515.115,189.411 515.115,187.11 515.115,184.313 L515.115,171.992 L510.805,172.05 C508.998,172.08 508.299,172.283 507.833,172.982 C507.513,173.477 507.426,173.681 507.338,173.885 C507.251,174.118 507.163,174.176 507.047,174.176 C506.959,174.176 506.901,174.089 506.901,173.915 C506.901,173.623 507.483,171.118 507.542,170.885 C507.601,170.71 507.717,170.332 507.833,170.332 C508.037,170.332 508.328,170.623 509.115,170.681 C509.96,170.768 511.066,170.827 511.416,170.827 L522.34,170.827 C523.271,170.827 523.941,170.768 524.407,170.681 C524.845,170.623 525.106,170.536 525.224,170.536 C525.369,170.536 525.369,170.71 525.369,170.885 C525.369,171.758 525.281,173.769 525.281,174.089 C525.281,174.351 525.194,174.467 525.077,174.467 C524.932,174.467 524.874,174.38 524.845,173.972 L524.815,173.652 C524.729,172.778 524.029,172.108 521.232,172.05 L517.563,171.992 L517.563,184.313" id="Fill-26" fill="#26386E"></path>
        <path d="M1.437,144.683 L306.114,144.683 M351.619,144.683 L524.046,144.683" id="Stroke-27" stroke="#364051" stroke-width="2.25"></path>
        <path d="M640.415,136.304 C640.415,136.304 666.885,124.168 640.373,95.279 C612.808,65.241 532.882,15.145 532.882,15.145 C532.882,15.145 657.071,114.47 640.415,136.304" id="Fill-29" fill="#364051"></path>
    </g>
</svg>