<svg width="24" height="24" viewBox="0 0 24 24" fill="none" xmlns="http://www.w3.org/2000/svg">
<path d="M0.186587 0.908487C0.133545 0.865892 0.0897711 0.812903 0.0579537 0.752774C0.0261362 0.692646 0.00694696 0.626647 0.00156461 0.558832C-0.00381773 0.491018 0.00472044 0.422819 0.0266547 0.358424C0.048589 0.294029 0.0834562 0.234798 0.129115 0.184369C0.174774 0.13394 0.23026 0.0933776 0.292165 0.0651731C0.354071 0.0369686 0.421089 0.0217175 0.489103 0.0203566C0.557118 0.0189956 0.624692 0.0315536 0.687677 0.0572591C0.750661 0.0829645 0.807725 0.121275 0.855365 0.169837L11.975 10.1915L23.1446 0.109946C23.2439 0.0302664 23.3698 -0.0085028 23.4966 0.00156556C23.6235 0.0116339 23.7417 0.0697794 23.8271 0.164113C23.9125 0.258447 23.9587 0.381844 23.9561 0.509074C23.9536 0.636303 23.9025 0.757755 23.8134 0.848597L12.3094 11.2346C12.2177 11.3174 12.0986 11.3632 11.975 11.3632C11.8515 11.3632 11.7324 11.3174 11.6407 11.2346L0.186587 0.908487ZM23.1446 12.677L11.975 22.7636L0.855365 12.7419C0.806537 12.698 0.749538 12.6641 0.687622 12.6422C0.625706 12.6203 0.560085 12.6108 0.494508 12.6143C0.42893 12.6178 0.364679 12.6342 0.305424 12.6625C0.246168 12.6908 0.193068 12.7305 0.149155 12.7793C0.105243 12.8281 0.0713776 12.8851 0.0494934 12.947C0.0276092 13.009 0.0181346 13.0746 0.0216104 13.1402C0.0250862 13.2057 0.0414445 13.27 0.0697512 13.3292C0.098058 13.3885 0.137759 13.4416 0.186587 13.4855L11.6407 23.8066C11.7324 23.8894 11.8515 23.9352 11.975 23.9352C12.0986 23.9352 12.2177 23.8894 12.3094 23.8066L23.8134 13.4206C23.8665 13.378 23.9102 13.325 23.942 13.2649C23.9739 13.2048 23.9931 13.1388 23.9984 13.071C24.0038 13.0032 23.9953 12.935 23.9733 12.8706C23.9514 12.8062 23.9165 12.7469 23.8709 12.6965C23.8252 12.6461 23.7697 12.6055 23.7078 12.5773C23.6459 12.5491 23.5789 12.5339 23.5109 12.5325C23.4429 12.5311 23.3753 12.5437 23.3123 12.5694C23.2493 12.5951 23.1923 12.6334 23.1446 12.682V12.677Z" fill="white"/>
</svg>
